<svg width="94" height="14" viewBox="0 0 94 14" fill="none" xmlns="http://www.w3.org/2000/svg">
<path d="M10.2187 13L9.0967 10.705H5.3227L4.2177 13H0.953703L7.2267 0.352L13.4827 13H10.2187ZM7.2267 5.486L5.9007 8.512H8.5357L7.2267 5.486ZM14.7297 1.1H18.8607C20.3793 1.1 21.5297 1.44567 22.3117 2.137C23.0937 2.82833 23.4847 3.78033 23.4847 4.993C23.4847 6.19433 23.0937 7.14633 22.3117 7.849C21.5297 8.54033 20.3793 8.886 18.8607 8.886H17.6027V13H14.7297V1.1ZM18.8607 3.463H17.6027V6.506H18.8607C19.4387 6.506 19.892 6.37567 20.2207 6.115C20.5493 5.85433 20.7137 5.48033 20.7137 4.993C20.7137 4.49433 20.5493 4.11467 20.2207 3.854C19.892 3.59333 19.4387 3.463 18.8607 3.463ZM25.3215 1.1H29.4525C30.9711 1.1 32.1215 1.44567 32.9035 2.137C33.6855 2.82833 34.0765 3.78033 34.0765 4.993C34.0765 6.19433 33.6855 7.14633 32.9035 7.849C32.1215 8.54033 30.9711 8.886 29.4525 8.886H28.1945V13H25.3215V1.1ZM29.4525 3.463H28.1945V6.506H29.4525C30.0305 6.506 30.4838 6.37567 30.8125 6.115C31.1411 5.85433 31.3055 5.48033 31.3055 4.993C31.3055 4.49433 31.1411 4.11467 30.8125 3.854C30.4838 3.59333 30.0305 3.463 29.4525 3.463ZM42.319 8.818C42.6816 9.464 43.1066 9.97967 43.594 10.365C44.0926 10.739 44.6423 10.926 45.243 10.926C45.6736 10.926 46.0193 10.824 46.28 10.62C46.552 10.4047 46.688 10.1157 46.688 9.753C46.688 9.45833 46.6086 9.21467 46.45 9.022C46.2913 8.82933 46.0363 8.648 45.685 8.478C45.345 8.308 44.886 8.11533 44.308 7.9C44.0133 7.78667 43.6846 7.63933 43.322 7.458C42.9593 7.27667 42.608 7.04433 42.268 6.761C41.9393 6.47767 41.6673 6.132 41.452 5.724C41.2366 5.30467 41.129 4.806 41.129 4.228C41.129 3.514 41.3103 2.90767 41.673 2.409C42.047 1.899 42.5456 1.508 43.169 1.236C43.8036 0.964 44.5063 0.828 45.277 0.828C46.0816 0.828 46.773 0.958333 47.351 1.219C47.929 1.47967 48.4106 1.80833 48.796 2.205C49.1813 2.60167 49.476 3.004 49.68 3.412L47.487 4.636C47.2263 4.20533 46.9146 3.86533 46.552 3.616C46.1893 3.35533 45.7756 3.225 45.311 3.225C44.903 3.225 44.5913 3.31567 44.376 3.497C44.172 3.667 44.07 3.88233 44.07 4.143C44.07 4.551 44.2966 4.88533 44.75 5.146C45.2146 5.39533 45.8606 5.66733 46.688 5.962C47.2433 6.15467 47.7476 6.41533 48.201 6.744C48.6656 7.06133 49.034 7.458 49.306 7.934C49.5893 8.39867 49.731 8.95967 49.731 9.617C49.731 10.4217 49.5213 11.1073 49.102 11.674C48.6826 12.2293 48.133 12.6543 47.453 12.949C46.7843 13.2323 46.076 13.374 45.328 13.374C44.5573 13.374 43.8376 13.238 43.169 12.966C42.5116 12.6827 41.9336 12.3087 41.435 11.844C40.9476 11.368 40.5736 10.841 40.313 10.263L42.319 8.818ZM50.445 3.684V1.1H59.863V3.684H56.599V13H53.709V3.684H50.445ZM59.6376 7.05C59.6376 6.132 59.7962 5.29333 60.1136 4.534C60.4422 3.77467 60.8956 3.11733 61.4736 2.562C62.0629 2.00667 62.7429 1.58167 63.5136 1.287C64.2956 0.981 65.1399 0.828 66.0466 0.828C66.9646 0.828 67.8146 0.981 68.5966 1.287C69.3786 1.58167 70.0529 2.00667 70.6196 2.562C71.1976 3.11733 71.6452 3.77467 71.9626 4.534C72.2912 5.29333 72.4556 6.132 72.4556 7.05C72.4556 7.968 72.2969 8.81233 71.9796 9.583C71.6736 10.3537 71.2316 11.0223 70.6536 11.589C70.0756 12.1557 69.3956 12.5977 68.6136 12.915C67.8429 13.221 66.9872 13.374 66.0466 13.374C65.1172 13.374 64.2616 13.221 63.4796 12.915C62.6976 12.5977 62.0176 12.1557 61.4396 11.589C60.8616 11.0223 60.4139 10.3537 60.0966 9.583C59.7906 8.81233 59.6376 7.968 59.6376 7.05ZM62.6806 7.05C62.6806 7.75267 62.8166 8.376 63.0886 8.92C63.3719 9.45267 63.7686 9.872 64.2786 10.178C64.7886 10.484 65.3779 10.637 66.0466 10.637C66.7266 10.637 67.3159 10.484 67.8146 10.178C68.3132 9.872 68.6986 9.45267 68.9706 8.92C69.2539 8.376 69.3956 7.75267 69.3956 7.05C69.3956 6.34733 69.2596 5.72967 68.9876 5.197C68.7156 4.653 68.3302 4.228 67.8316 3.922C67.3329 3.616 66.7379 3.463 66.0466 3.463C65.3779 3.463 64.7886 3.616 64.2786 3.922C63.7686 4.228 63.3719 4.653 63.0886 5.197C62.8166 5.72967 62.6806 6.34733 62.6806 7.05ZM74.2795 1.1H78.6145C80.1332 1.1 81.2835 1.46267 82.0655 2.188C82.8588 2.91333 83.2555 3.84833 83.2555 4.993C83.2555 5.809 83.0515 6.52867 82.6435 7.152C82.2468 7.764 81.6575 8.21733 80.8755 8.512L83.9695 13H80.5865L78.0365 8.886H77.1525V13H74.2795V1.1ZM78.4105 3.548H77.1525V6.642H78.4105C78.9885 6.642 79.4418 6.506 79.7705 6.234C80.0992 5.962 80.2635 5.58233 80.2635 5.095C80.2635 4.59633 80.0992 4.21667 79.7705 3.956C79.4418 3.684 78.9885 3.548 78.4105 3.548ZM85.2863 1.1H93.1913V3.463H88.0573V5.588H92.8513V7.917H88.0573V10.637H93.1913V13H85.2863V1.1Z" fill="white"/>
</svg>
