<svg width="200" height="53" viewBox="0 0 200 53" fill="none" xmlns="http://www.w3.org/2000/svg">
<path d="M66.0987 30.705H72.3887L72.2017 28.512H66.3027L66.0987 30.705ZM69.2097 25.469L70.8927 29.328L70.7907 30.059L72.2187 33H75.4827L69.2097 20.352L62.9537 33H66.2007L67.6797 29.94L67.5437 29.311L69.2097 25.469ZM76.7297 21.1V33H79.6027V21.1H76.7297ZM78.5317 23.463H80.8607C81.4387 23.463 81.892 23.5933 82.2207 23.854C82.5493 24.1147 82.7137 24.4943 82.7137 24.993C82.7137 25.4803 82.5493 25.8543 82.2207 26.115C81.892 26.3757 81.4387 26.506 80.8607 26.506H78.5317V28.869H80.8607C81.8693 28.869 82.7137 28.716 83.3937 28.41C84.085 28.0927 84.6063 27.645 84.9577 27.067C85.309 26.4777 85.4847 25.7863 85.4847 24.993C85.4847 24.177 85.309 23.48 84.9577 22.902C84.6063 22.324 84.085 21.882 83.3937 21.576C82.7137 21.2587 81.8693 21.1 80.8607 21.1H78.5317V23.463ZM87.3215 21.1V33H90.1945V21.1H87.3215ZM89.1235 23.463H91.4525C92.0305 23.463 92.4838 23.5933 92.8125 23.854C93.1411 24.1147 93.3055 24.4943 93.3055 24.993C93.3055 25.4803 93.1411 25.8543 92.8125 26.115C92.4838 26.3757 92.0305 26.506 91.4525 26.506H89.1235V28.869H91.4525C92.4611 28.869 93.3055 28.716 93.9855 28.41C94.6768 28.0927 95.1981 27.645 95.5495 27.067C95.9008 26.4777 96.0765 25.7863 96.0765 24.993C96.0765 24.177 95.9008 23.48 95.5495 22.902C95.1981 22.324 94.6768 21.882 93.9855 21.576C93.3055 21.2587 92.4611 21.1 91.4525 21.1H89.1235V23.463ZM104.319 28.818L102.313 30.263C102.585 30.8297 102.965 31.351 103.452 31.827C103.939 32.303 104.512 32.6827 105.169 32.966C105.838 33.238 106.557 33.374 107.328 33.374C107.883 33.374 108.422 33.289 108.943 33.119C109.476 32.9603 109.946 32.7223 110.354 32.405C110.773 32.0877 111.102 31.6967 111.34 31.232C111.589 30.756 111.714 30.2177 111.714 29.617C111.714 29.1183 111.635 28.6763 111.476 28.291C111.317 27.9057 111.096 27.5657 110.813 27.271C110.541 26.9763 110.224 26.727 109.861 26.523C109.498 26.3077 109.107 26.1207 108.688 25.962C108.133 25.7693 107.657 25.588 107.26 25.418C106.875 25.248 106.574 25.061 106.359 24.857C106.155 24.653 106.053 24.415 106.053 24.143C106.053 23.8823 106.161 23.667 106.376 23.497C106.591 23.3157 106.903 23.225 107.311 23.225C107.617 23.225 107.9 23.2873 108.161 23.412C108.433 23.5253 108.677 23.6897 108.892 23.905C109.119 24.109 109.317 24.3527 109.487 24.636L111.68 23.412C111.476 23.004 111.181 22.6017 110.796 22.205C110.411 21.8083 109.923 21.4797 109.334 21.219C108.756 20.9583 108.07 20.828 107.277 20.828C106.506 20.828 105.804 20.964 105.169 21.236C104.546 21.4967 104.047 21.882 103.673 22.392C103.31 22.902 103.129 23.5083 103.129 24.211C103.129 24.8003 103.237 25.3047 103.452 25.724C103.667 26.132 103.939 26.4833 104.268 26.778C104.597 27.0613 104.942 27.2937 105.305 27.475C105.679 27.6563 106.008 27.798 106.291 27.9C106.869 28.1153 107.334 28.308 107.685 28.478C108.036 28.648 108.291 28.8293 108.45 29.022C108.609 29.2033 108.688 29.447 108.688 29.753C108.688 30.1157 108.552 30.4047 108.28 30.62C108.008 30.824 107.662 30.926 107.243 30.926C106.846 30.926 106.467 30.841 106.104 30.671C105.753 30.501 105.424 30.2573 105.118 29.94C104.823 29.6227 104.557 29.2487 104.319 28.818ZM112.445 23.667H115.709V33H118.582V23.667H121.863V21.1H112.445V23.667ZM124.681 27.05C124.681 26.3473 124.817 25.7297 125.089 25.197C125.372 24.653 125.763 24.228 126.262 23.922C126.772 23.616 127.367 23.463 128.047 23.463C128.738 23.463 129.333 23.616 129.832 23.922C130.33 24.228 130.716 24.653 130.988 25.197C131.26 25.7297 131.396 26.3473 131.396 27.05C131.396 27.7527 131.254 28.376 130.971 28.92C130.699 29.4527 130.308 29.872 129.798 30.178C129.299 30.484 128.715 30.637 128.047 30.637C127.367 30.637 126.772 30.484 126.262 30.178C125.763 29.872 125.372 29.4527 125.089 28.92C124.817 28.376 124.681 27.7527 124.681 27.05ZM121.638 27.05C121.638 27.968 121.791 28.8123 122.097 29.583C122.414 30.3537 122.856 31.0223 123.423 31.589C124.001 32.1557 124.681 32.5977 125.463 32.915C126.245 33.221 127.106 33.374 128.047 33.374C128.976 33.374 129.832 33.221 130.614 32.915C131.396 32.5977 132.07 32.1557 132.637 31.589C133.215 31.0223 133.657 30.3537 133.963 29.583C134.28 28.8123 134.439 27.968 134.439 27.05C134.439 26.132 134.28 25.2933 133.963 24.534C133.645 23.7747 133.198 23.1173 132.62 22.562C132.042 22.0067 131.362 21.5817 130.58 21.287C129.809 20.981 128.965 20.828 128.047 20.828C127.14 20.828 126.296 20.981 125.514 21.287C124.732 21.5817 124.052 22.0067 123.474 22.562C122.896 23.1173 122.442 23.7747 122.114 24.534C121.796 25.2933 121.638 26.132 121.638 27.05ZM139.254 27.611L142.586 33H145.952L142.229 27.611H139.254ZM136.279 21.1V33H139.152V21.1H136.279ZM138.081 23.531H140.41C140.796 23.531 141.124 23.5933 141.396 23.718C141.68 23.8427 141.895 24.024 142.042 24.262C142.19 24.4887 142.263 24.7663 142.263 25.095C142.263 25.4237 142.19 25.707 142.042 25.945C141.895 26.1717 141.68 26.3473 141.396 26.472C141.124 26.5853 140.796 26.642 140.41 26.642H138.081V28.869H140.614C141.634 28.869 142.484 28.7047 143.164 28.376C143.844 28.0473 144.36 27.594 144.711 27.016C145.063 26.4267 145.238 25.7523 145.238 24.993C145.238 24.2223 145.063 23.548 144.711 22.97C144.36 22.3807 143.844 21.9217 143.164 21.593C142.484 21.2643 141.634 21.1 140.614 21.1H138.081V23.531ZM149.19 33H155.191V30.637H149.19V33ZM149.19 23.463H155.191V21.1H149.19V23.463ZM149.19 27.9H154.851V25.588H149.19V27.9ZM147.286 21.1V33H150.04V21.1H147.286Z" fill="white"/>
<path d="M50.0059 15.7455C50.9554 14.6388 51.6143 13.1195 51.6143 11.6002C51.6143 11.3939 51.5949 11.1688 51.5562 11C50.0253 11.0563 48.165 11.9941 47.0605 13.2696C46.1885 14.2262 45.3746 15.7455 45.3746 17.2836C45.3746 17.5087 45.4133 17.7525 45.4327 17.8275C45.5296 17.8463 45.6846 17.865 45.8396 17.865C47.2349 17.865 48.9789 16.9647 50.0059 15.7455ZM51.0911 18.1839C48.7657 18.1839 46.8861 19.5532 45.6846 19.5532C44.4057 19.5532 42.7004 18.2589 40.6851 18.2589C36.8676 18.2589 32.9727 21.3351 32.9727 27.0934C32.9727 30.7135 34.426 34.5024 36.1894 36.9596C37.7203 39.0416 39.0573 40.7297 40.9564 40.7297C42.8554 40.7297 43.7081 39.5105 46.0722 39.5105C48.4557 39.5105 48.9983 40.6922 51.0911 40.6922C53.1839 40.6922 54.5597 38.854 55.8581 37.0346C57.3308 34.9526 57.9509 32.9269 57.9703 32.8143C57.854 32.7768 53.8621 31.22 53.8621 26.7933C53.8621 22.9857 57.0014 21.2788 57.1758 21.1475C55.1217 18.2589 51.9631 18.1839 51.0911 18.1839Z" fill="white"/>
<rect x="1" y="1" width="197.981" height="51" rx="25.5" stroke="white" stroke-width="2"/>
</svg>
