<svg width="90" height="90" viewBox="0 0 90 90" fill="none" xmlns="http://www.w3.org/2000/svg">
<circle cx="45" cy="45" r="45" fill="url(#paint0_linear_3_18)"/>
<path d="M34.6167 32L34.625 30.3333H29.0483C28.4683 30.3333 28 30.8183 28 31.415V60.92C28 61.5167 28.4683 62 29.0467 62H61.9517C62.5317 62 63 61.5151 63 60.92V31.415C63 30.8166 62.53 30.3333 61.9517 30.3333H56.345L56.3367 32H61.3333V40.3333H29.6667V32H34.6167ZM34.6666 60.3333H30.3833C29.9867 60.3333 29.6667 60.055 29.6667 59.71V55.3334H34.6666V60.3333ZM34.6666 53.6667H29.6667V48.6667H34.6666V53.6667ZM56.3334 42H61.3334V47H56.3334V42ZM56.3334 48.6667H61.3334V53.6667H56.3334V48.6667ZM56.3334 55.3334H61.3334V59.71C61.3334 60.0533 61.0117 60.3333 60.6167 60.3333H56.3334V55.3334H56.3334ZM49.6667 42H54.6667V47H49.6667V42V42ZM49.6667 48.6667H54.6667V53.6667H49.6667V48.6667V48.6667ZM49.6667 55.3334H54.6667V60.3334H49.6667V55.3334V55.3334ZM43 42H48V47H43V42ZM43 55.3334H48V60.3334H43V55.3334ZM36.3333 42H41.3333V47H36.3333V42ZM36.3333 48.6667H41.3333V53.6667H36.3333V48.6667ZM36.3333 55.3334H41.3333V60.3334H36.3333V55.3334ZM34.6666 42V47H29.6667V42H34.6666Z" fill="white"/>
<defs>
<linearGradient id="paint0_linear_3_18" x1="45" y1="0" x2="45" y2="90" gradientUnits="userSpaceOnUse">
<stop stop-color="#8253D8"/>
<stop offset="1" stop-color="#D05DDE"/>
</linearGradient>
</defs>
</svg>
