<svg width="201" height="53" viewBox="0 0 201 53" fill="none" xmlns="http://www.w3.org/2000/svg">
<path d="M33.5467 14.8131L42.6328 24.2768C42.8688 24.5223 43.2653 24.5223 43.5013 24.2768L45.3421 22.3605C45.6159 22.0773 45.5545 21.6147 45.21 21.4212C40.4569 18.7308 34.5662 15.3984 33.5467 14.8131ZM30.7949 15.4409C30.6911 15.6816 30.625 15.9412 30.625 16.2338V36.8841C30.625 37.1201 30.6769 37.3372 30.7572 37.5449L40.9855 26.8917C41.2121 26.6604 41.2121 26.2923 40.9855 26.0563L30.7949 15.4409ZM48.075 23.1865C47.9476 23.2054 47.8249 23.2667 47.7305 23.3658L45.1439 26.0563C44.9173 26.2876 44.9173 26.6557 45.1439 26.8917L47.7069 29.5586C47.8957 29.7568 48.2025 29.7993 48.4432 29.6624C50.2321 28.6476 51.4404 27.9679 51.4404 27.9679C52.0446 27.5997 52.3844 27.038 52.375 26.4244C52.3656 25.825 52.0163 25.268 51.4357 24.9423C51.3649 24.8999 50.1849 24.2343 48.4621 23.262C48.3441 23.1912 48.2072 23.1676 48.075 23.1865ZM43.0671 28.4871C42.9066 28.4871 42.7508 28.5485 42.6281 28.6759L33.6128 38.0594C35.1657 37.1767 40.6882 34.052 45.1864 31.5079C45.5309 31.3097 45.5923 30.8471 45.3185 30.5639L43.5013 28.6759C43.3833 28.5485 43.2275 28.4871 43.0671 28.4871Z" fill="white"/>
<rect x="1.95508" y="1" width="197.981" height="51" rx="25.5" stroke="white" stroke-width="2"/>
<path d="M61.2082 20.1H65.3392C66.8579 20.1 68.0082 20.4457 68.7902 21.137C69.5722 21.8283 69.9632 22.7803 69.9632 23.993C69.9632 25.1943 69.5722 26.1463 68.7902 26.849C68.0082 27.5403 66.8579 27.886 65.3392 27.886H64.0812V32H61.2082V20.1ZM65.3392 22.463H64.0812V25.506H65.3392C65.9172 25.506 66.3705 25.3757 66.6992 25.115C67.0279 24.8543 67.1922 24.4803 67.1922 23.993C67.1922 23.4943 67.0279 23.1147 66.6992 22.854C66.3705 22.5933 65.9172 22.463 65.3392 22.463ZM71.8 20.1H74.673V29.518H79.45V32H71.8V20.1ZM89.2861 32L88.1641 29.705H84.3901L83.2851 32H80.0211L86.2941 19.352L92.5501 32H89.2861ZM86.2941 24.486L84.9681 27.512H87.6031L86.2941 24.486ZM99.2828 20.1H102.598L98.4328 27.155V32H95.4918V27.172L91.3267 20.1H94.6418L96.9538 24.571L99.2828 20.1ZM111.998 25.948L111.267 32H108.241L110.162 19.505L115.245 26.747L120.311 19.505L122.249 32H119.206L118.492 25.948L115.245 30.895L111.998 25.948ZM132.052 32L130.93 29.705H127.156L126.051 32H122.787L129.06 19.352L135.316 32H132.052ZM129.06 24.486L127.734 27.512H130.369L129.06 24.486ZM136.563 20.1H140.898C142.416 20.1 143.567 20.4627 144.349 21.188C145.142 21.9133 145.539 22.8483 145.539 23.993C145.539 24.809 145.335 25.5287 144.927 26.152C144.53 26.764 143.941 27.2173 143.159 27.512L146.253 32H142.87L140.32 27.886H139.436V32H136.563V20.1ZM140.694 22.548H139.436V25.642H140.694C141.272 25.642 141.725 25.506 142.054 25.234C142.382 24.962 142.547 24.5823 142.547 24.095C142.547 23.5963 142.382 23.2167 142.054 22.956C141.725 22.684 141.272 22.548 140.694 22.548ZM147.57 20.1H150.545V24.792L154.591 20.1H157.974L153.146 25.676L158.229 32H154.744L150.545 26.798V32H147.57V20.1ZM159.473 20.1H167.378V22.463H162.244V24.588H167.038V26.917H162.244V29.637H167.378V32H159.473V20.1ZM168.526 22.684V20.1H177.944V22.684H174.68V32H171.79V22.684H168.526Z" fill="white"/>
</svg>
