<svg width="117" height="13" viewBox="0 0 117 13" fill="none" xmlns="http://www.w3.org/2000/svg">
<path d="M0.208195 1.1H4.3392C5.85786 1.1 7.0082 1.44567 7.7902 2.137C8.5722 2.82833 8.9632 3.78033 8.9632 4.993C8.9632 6.19433 8.5722 7.14633 7.7902 7.849C7.0082 8.54033 5.85786 8.886 4.3392 8.886H3.0812V13H0.208195V1.1ZM4.3392 3.463H3.0812V6.506H4.3392C4.9172 6.506 5.37053 6.37567 5.6992 6.115C6.02786 5.85433 6.1922 5.48033 6.1922 4.993C6.1922 4.49433 6.02786 4.11467 5.6992 3.854C5.37053 3.59333 4.9172 3.463 4.3392 3.463ZM10.8 1.1H13.673V10.518H18.45V13H10.8V1.1ZM28.2861 13L27.1641 10.705H23.3901L22.2851 13H19.0211L25.2941 0.352L31.5501 13H28.2861ZM25.2941 5.486L23.9681 8.512H26.6031L25.2941 5.486ZM38.2828 1.1H41.5978L37.4328 8.155V13H34.4918V8.172L30.3267 1.1H33.6418L35.9538 5.571L38.2828 1.1ZM50.9981 6.948L50.2671 13H47.2411L49.1621 0.505L54.2451 7.747L59.3111 0.505L61.2491 13H58.2061L57.4921 6.948L54.2451 11.895L50.9981 6.948ZM71.0517 13L69.9297 10.705H66.1557L65.0507 13H61.7867L68.0597 0.352L74.3157 13H71.0517ZM68.0597 5.486L66.7337 8.512H69.3687L68.0597 5.486ZM75.5627 1.1H79.8977C81.4164 1.1 82.5667 1.46267 83.3487 2.188C84.142 2.91333 84.5387 3.84833 84.5387 4.993C84.5387 5.809 84.3347 6.52867 83.9267 7.152C83.53 7.764 82.9407 8.21733 82.1587 8.512L85.2527 13H81.8697L79.3197 8.886H78.4357V13H75.5627V1.1ZM79.6937 3.548H78.4357V6.642H79.6937C80.2717 6.642 80.725 6.506 81.0537 6.234C81.3824 5.962 81.5467 5.58233 81.5467 5.095C81.5467 4.59633 81.3824 4.21667 81.0537 3.956C80.725 3.684 80.2717 3.548 79.6937 3.548ZM86.5695 1.1H89.5445V5.792L93.5905 1.1H96.9735L92.1455 6.676L97.2285 13H93.7435L89.5445 7.798V13H86.5695V1.1ZM98.4728 1.1H106.378V3.463H101.244V5.588H106.038V7.917H101.244V10.637H106.378V13H98.4728V1.1ZM107.526 3.684V1.1H116.944V3.684H113.68V13H110.79V3.684H107.526Z" fill="white"/>
</svg>
